<?xml version="1.0" encoding="utf-8"?>
<!-- Generator: Adobe Illustrator 22.0.1, SVG Export Plug-In . SVG Version: 6.00 Build 0)  -->
<svg version="1.1" xmlns="http://www.w3.org/2000/svg" xmlns:xlink="http://www.w3.org/1999/xlink" x="0px" y="0px"
	 viewBox="0 0 142.473 24" enable-background="new 0 0 142.473 24" xml:space="preserve">
<g id="layout">
	<g>
		<g>
			<path fill="#111111" d="M36.406,6.155c0-0.406-0.239-0.62-0.62-0.62h-1.193V3.841h1.98c1.241,0,1.718,0.525,1.718,1.527
				c0,0.573-0.024,0.978-0.024,0.978h0.048c0,0,1.145-2.839,4.962-2.839c3.865,0,6.274,3.101,6.274,7.563
				c0,4.557-2.72,7.539-6.441,7.539c-3.531,0-4.724-2.72-4.724-2.72h-0.048c0,0,0.048,0.525,0.048,1.264V24h-1.956V6.155H36.406z
				 M42.871,16.843c2.553,0,4.628-2.147,4.628-5.821c0-3.531-1.861-5.773-4.557-5.773c-2.41,0-4.676,1.718-4.676,5.821
				C38.29,13.956,39.865,16.843,42.871,16.843z"/>
			<path fill="#111111" d="M52.08,6.155c0-0.406-0.239-0.62-0.62-0.62h-1.193V3.841h2.004c1.193,0,1.742,0.477,1.742,1.622v0.978
				c0,0.596-0.048,1.097-0.048,1.097h0.048c0.692-2.171,2.29-3.841,4.557-3.841c0.406,0,0.763,0.095,0.763,0.095v1.909
				c0,0-0.334-0.048-0.716-0.048c-2.028,0-3.555,1.598-4.175,3.722c-0.286,0.907-0.406,1.885-0.406,2.815v6.06H52.08V6.155z"/>
			<path fill="#111111" d="M62.004,6.155c0-0.406-0.239-0.62-0.62-0.62h-1.193V3.841h2.028c1.241,0,1.742,0.525,1.742,1.742v10.33
				c0,0.429,0.239,0.62,0.62,0.62h1.193v1.694h-2.028c-1.241,0-1.742-0.525-1.742-1.742V6.155z M61.932,0h1.885v2.457h-1.885V0z"/>
			<path fill="#111111" d="M73.98,3.483c1.622,0,5.129,0.692,5.129,3.054v1.288h-1.837V6.99c0-1.193-2.099-1.765-3.292-1.765
				c-3.101,0-5.583,2.314-5.583,5.821c0,3.555,2.6,5.75,5.63,5.75c2.958,0,4.628-2.028,4.628-2.028l0.907,1.455
				c0,0-1.956,2.338-5.63,2.338c-4.294,0-7.563-3.054-7.563-7.539C66.394,6.632,69.686,3.483,73.98,3.483z"/>
			<path fill="#111111" d="M87.435,3.483c3.984,0,6.036,3.054,6.036,6.632c0,0.334-0.048,0.978-0.048,0.978H82.378
				c0.048,3.626,2.6,5.726,5.583,5.726c2.624,0,4.318-1.765,4.318-1.765l0.954,1.455c0,0-2.099,2.052-5.344,2.052
				c-4.27,0-7.539-3.101-7.539-7.539C80.35,6.322,83.571,3.483,87.435,3.483z M91.467,9.543c-0.119-2.982-1.956-4.437-4.056-4.437
				c-2.386,0-4.461,1.551-4.962,4.437H91.467z"/>
			<path fill="#111111" d="M96.954,6.227c0-0.286-0.167-0.453-0.453-0.453h-0.883V3.459h2.672c1.002,0,1.408,0.429,1.408,1.408
				v10.592c0,0.286,0.167,0.453,0.453,0.453h3.221c0.286,0,0.453-0.167,0.453-0.453v-0.883h2.481v2.243
				c0,1.002-0.406,1.408-1.408,1.408h-6.513c-1.002,0-1.408-0.406-1.408-1.408V6.227H96.954z"/>
			<path fill="#111111" d="M107.356,5.75h-1.36V3.435h8.922c0.978,0,1.408,0.429,1.408,1.408v2.243h-2.481V6.227
				c0-0.286-0.167-0.453-0.453-0.453h-3.316v3.865h4.771v2.314h-4.771v3.507c0,0.286,0.167,0.453,0.453,0.453h3.412
				c0.286,0,0.453-0.167,0.453-0.453v-0.883h2.481v2.243c0,1.002-0.429,1.408-1.408,1.408h-6.704c-1.002,0-1.408-0.406-1.408-1.408
				L107.356,5.75L107.356,5.75z"/>
			<path fill="#111111" d="M117.495,15.913h0.907c0.286,0,0.453-0.167,0.453-0.453v-12h2.457l5.606,8.183
				c0.573,0.859,1.217,2.076,1.217,2.076h0.048c0,0-0.143-1.217-0.143-2.076V4.867c0-0.978,0.406-1.408,1.408-1.408h2.672v2.29
				h-0.883c-0.286,0-0.453,0.167-0.453,0.453v12h-2.433l-5.606-8.159c-0.573-0.835-1.217-2.076-1.217-2.076h-0.048
				c0,0,0.143,1.217,0.143,2.076v6.728c0,1.002-0.406,1.408-1.408,1.408h-2.672v-2.266H117.495z"/>
			<path fill="#111111" d="M134.028,14.266c0,0,1.527,1.742,3.579,1.742c1.121,0,2.123-0.596,2.123-1.742
				c0-2.505-6.942-2.314-6.942-6.895c0-2.386,2.076-4.151,4.938-4.151c1.718,0,4.39,0.811,4.39,2.911v1.384h-2.457V6.847
				c0-0.692-0.978-1.145-1.956-1.145c-1.241,0-2.171,0.644-2.171,1.575c0,2.505,6.942,2.028,6.942,6.871
				c0,2.338-1.813,4.342-4.915,4.342c-3.268,0-5.081-2.29-5.081-2.29L134.028,14.266z"/>
			<path fill="#111111" d="M31.062,10.807l-7.753-7.754c-0.859-0.859-2.624-1.598-3.841-1.598H1.909
				c-0.501,0-0.978,0.191-1.336,0.549C0.191,2.386,0,2.863,0,3.364v17.559c0,0.501,0.191,0.978,0.549,1.336s0.835,0.549,1.336,0.549
				h17.559c1.217,0,2.982-0.74,3.841-1.598l7.753-7.753c0.358-0.358,0.549-0.835,0.549-1.336
				C31.61,11.642,31.419,11.165,31.062,10.807z M23.714,16.223c-2.076,0-3.793-1.575-4.032-3.579h-1.718v0.262
				c0,0.119-0.095,0.215-0.215,0.215h-5.415c-0.262,0.024-0.525-0.072-0.74-0.262c-0.358-0.358-0.358-0.978,0-1.336
				c0.215-0.215,0.477-0.286,0.74-0.262h5.415c0.119,0,0.215,0.095,0.215,0.215v0.262h1.718c0.239-2.028,1.956-3.602,4.032-3.602
				c2.243-0.024,4.056,1.789,4.056,4.032C27.769,14.41,25.956,16.223,23.714,16.223z"/>
			<path fill="#111111" d="M23.714,15.006c1.575,0,2.839-1.264,2.839-2.839s-1.264-2.839-2.839-2.839
				c-1.575,0-2.839,1.264-2.839,2.839C20.875,13.742,22.139,15.006,23.714,15.006z"/>
		</g>
	</g>
</g>
<g id="Layer_2" display="none">
</g>
</svg>
