<?xml version="1.0" encoding="utf-8"?>
<!-- Generator: Adobe Illustrator 22.0.1, SVG Export Plug-In . SVG Version: 6.00 Build 0)  -->
<svg version="1.1" id="Layer_1" xmlns="http://www.w3.org/2000/svg" xmlns:xlink="http://www.w3.org/1999/xlink" x="0px" y="0px"
	 viewBox="0 0 142.5 24" style="enable-background:new 0 0 142.5 24;" xml:space="preserve">
<style type="text/css">
	.st0{fill:#070707;}
	.st1{display:none;}
</style>
<g id="layout">
	<g>
		<g>
			<path class="st0" d="M36.4,6.2c0-0.4-0.2-0.6-0.6-0.6h-1.2V3.8h2c1.2,0,1.7,0.5,1.7,1.5c0,0.6,0,1,0,1h0c0,0,1.1-2.8,5-2.8
				c3.9,0,6.3,3.1,6.3,7.6c0,4.6-2.7,7.5-6.4,7.5c-3.5,0-4.7-2.7-4.7-2.7h0c0,0,0,0.5,0,1.3V24h-2L36.4,6.2L36.4,6.2z M42.9,16.8
				c2.6,0,4.6-2.1,4.6-5.8c0-3.5-1.9-5.8-4.6-5.8c-2.4,0-4.7,1.7-4.7,5.8C38.3,14,39.9,16.8,42.9,16.8z"/>
			<path class="st0" d="M52.1,6.2c0-0.4-0.2-0.6-0.6-0.6h-1.2V3.8h2c1.2,0,1.7,0.5,1.7,1.6v1c0,0.6,0,1.1,0,1.1h0
				c0.7-2.2,2.3-3.8,4.6-3.8c0.4,0,0.8,0.1,0.8,0.1v1.9c0,0-0.3,0-0.7,0c-2,0-3.6,1.6-4.2,3.7c-0.3,0.9-0.4,1.9-0.4,2.8v6.1h-2V6.2z
				"/>
			<path class="st0" d="M62,6.2c0-0.4-0.2-0.6-0.6-0.6h-1.2V3.8h2c1.2,0,1.7,0.5,1.7,1.7v10.3c0,0.4,0.2,0.6,0.6,0.6h1.2v1.7h-2
				c-1.2,0-1.7-0.5-1.7-1.7V6.2z M61.9,0h1.9v2.5h-1.9V0z"/>
			<path class="st0" d="M74,3.5c1.6,0,5.1,0.7,5.1,3.1v1.3h-1.8V7c0-1.2-2.1-1.8-3.3-1.8c-3.1,0-5.6,2.3-5.6,5.8
				c0,3.6,2.6,5.8,5.6,5.8c3,0,4.6-2,4.6-2l0.9,1.5c0,0-2,2.3-5.6,2.3c-4.3,0-7.6-3.1-7.6-7.5C66.4,6.6,69.7,3.5,74,3.5z"/>
			<path class="st0" d="M87.4,3.5c4,0,6,3.1,6,6.6c0,0.3,0,1,0,1h-11c0,3.6,2.6,5.7,5.6,5.7c2.6,0,4.3-1.8,4.3-1.8l1,1.5
				c0,0-2.1,2.1-5.3,2.1c-4.3,0-7.5-3.1-7.5-7.5C80.3,6.3,83.6,3.5,87.4,3.5z M91.5,9.5c-0.1-3-2-4.4-4.1-4.4c-2.4,0-4.5,1.6-5,4.4
				H91.5z"/>
			<path class="st0" d="M97,6.2c0-0.3-0.2-0.5-0.5-0.5h-0.9V3.5h2.7c1,0,1.4,0.4,1.4,1.4v10.6c0,0.3,0.2,0.5,0.5,0.5h3.2
				c0.3,0,0.5-0.2,0.5-0.5v-0.9h2.5v2.2c0,1-0.4,1.4-1.4,1.4h-6.5c-1,0-1.4-0.4-1.4-1.4L97,6.2L97,6.2z"/>
			<path class="st0" d="M107.4,5.8H106V3.4h8.9c1,0,1.4,0.4,1.4,1.4v2.2h-2.5V6.2c0-0.3-0.2-0.5-0.5-0.5h-3.3v3.9h4.8V12h-4.8v3.5
				c0,0.3,0.2,0.5,0.5,0.5h3.4c0.3,0,0.5-0.2,0.5-0.5v-0.9h2.5v2.2c0,1-0.4,1.4-1.4,1.4h-6.7c-1,0-1.4-0.4-1.4-1.4L107.4,5.8
				L107.4,5.8z"/>
			<path class="st0" d="M117.5,15.9h0.9c0.3,0,0.5-0.2,0.5-0.5v-12h2.5l5.6,8.2c0.6,0.9,1.2,2.1,1.2,2.1h0c0,0-0.1-1.2-0.1-2.1V4.9
				c0-1,0.4-1.4,1.4-1.4h2.7v2.3h-0.9c-0.3,0-0.5,0.2-0.5,0.5v12h-2.4l-5.6-8.2c-0.6-0.8-1.2-2.1-1.2-2.1h0c0,0,0.1,1.2,0.1,2.1v6.7
				c0,1-0.4,1.4-1.4,1.4h-2.7L117.5,15.9C117.5,15.9,117.5,15.9,117.5,15.9z"/>
			<path class="st0" d="M134,14.3c0,0,1.5,1.7,3.6,1.7c1.1,0,2.1-0.6,2.1-1.7c0-2.5-6.9-2.3-6.9-6.9c0-2.4,2.1-4.2,4.9-4.2
				c1.7,0,4.4,0.8,4.4,2.9v1.4h-2.5V6.8c0-0.7-1-1.1-2-1.1c-1.2,0-2.2,0.6-2.2,1.6c0,2.5,6.9,2,6.9,6.9c0,2.3-1.8,4.3-4.9,4.3
				c-3.3,0-5.1-2.3-5.1-2.3L134,14.3z"/>
			<path class="st0" d="M31.1,10.8l-7.8-7.8c-0.9-0.9-2.6-1.6-3.8-1.6H1.9c-0.5,0-1,0.2-1.3,0.5C0.2,2.4,0,2.9,0,3.4v17.6
				c0,0.5,0.2,1,0.5,1.3s0.8,0.5,1.3,0.5h17.6c1.2,0,3-0.7,3.8-1.6l7.8-7.8c0.4-0.4,0.5-0.8,0.5-1.3C31.6,11.6,31.4,11.2,31.1,10.8z
				 M23.7,16.2c-2.1,0-3.8-1.6-4-3.6H18v0.3c0,0.1-0.1,0.2-0.2,0.2h-5.4c-0.3,0-0.5-0.1-0.7-0.3c-0.4-0.4-0.4-1,0-1.3
				c0.2-0.2,0.5-0.3,0.7-0.3h5.4c0.1,0,0.2,0.1,0.2,0.2v0.3h1.7c0.2-2,2-3.6,4-3.6c2.2,0,4.1,1.8,4.1,4C27.8,14.4,26,16.2,23.7,16.2
				z"/>
			<path class="st0" d="M23.7,15c1.6,0,2.8-1.3,2.8-2.8s-1.3-2.8-2.8-2.8s-2.8,1.3-2.8,2.8S22.1,15,23.7,15z"/>
		</g>
	</g>
</g>
<g id="Layer_2_1_" class="st1">
</g>
</svg>
